<svg width="64" height="65" viewBox="0 0 64 65" fill="none" xmlns="http://www.w3.org/2000/svg">
<path d="M52 27.5C51.7348 27.5 51.4804 27.3946 51.2929 27.2071C51.1054 27.0196 51 26.7652 51 26.5V22.5C51 11.668 43.262 3.5 33 3.5H31C20.738 3.5 13 11.668 13 22.5V26.5C13 26.7652 12.8946 27.0196 12.7071 27.2071C12.5196 27.3946 12.2652 27.5 12 27.5C11.7348 27.5 11.4804 27.3946 11.2929 27.2071C11.1054 27.0196 11 26.7652 11 26.5V22.5C11 10.528 19.6 1.5 31 1.5H33C44.4 1.5 53 10.528 53 22.5V26.5C53 26.7652 52.8946 27.0196 52.7071 27.2071C52.5196 27.3946 52.2652 27.5 52 27.5ZM40 59.5C39.7348 59.5 39.4804 59.3946 39.2929 59.2071C39.1054 59.0196 39 58.7652 39 58.5C39 58.2348 39.1054 57.9804 39.2929 57.7929C39.4804 57.6054 39.7348 57.5 40 57.5C40.449 57.5 51 57.3 51 44.5C51 44.2348 51.1054 43.9804 51.2929 43.7929C51.4804 43.6054 51.7348 43.5 52 43.5C52.2652 43.5 52.5196 43.6054 52.7071 43.7929C52.8946 43.9804 53 44.2348 53 44.5C53 59.328 40.13 59.5 40 59.5Z" fill="#7C89AD"/>
<path d="M12.984 44.5H7.6C6.64522 44.5 5.72955 44.1207 5.05442 43.4456C4.37928 42.7705 4 41.8548 4 40.9V30.1C4 29.1452 4.37928 28.2295 5.05442 27.5544C5.72955 26.8793 6.64522 26.5 7.6 26.5H12.989L12.984 44.5ZM51.031 44.5H56.4C57.3548 44.5 58.2705 44.1207 58.9456 43.4456C59.6207 42.7705 60 41.8548 60 40.9V30.1C60 29.1452 59.6207 28.2295 58.9456 27.5544C58.2705 26.8793 57.3548 26.5 56.4 26.5H51.031V44.5Z" fill="#44E0B3"/>
<path d="M48 39.5H34C33.8345 39.5 33.6716 39.4589 33.5259 39.3804C33.3803 39.3019 33.2563 39.1885 33.1652 39.0504C33.0741 38.9122 33.0188 38.7536 33.0041 38.5888C32.9894 38.424 33.0158 38.2581 33.081 38.106L39.081 24.106C39.1315 23.9834 39.2058 23.8722 39.2997 23.7786C39.3935 23.6851 39.5051 23.6111 39.6278 23.561C39.7504 23.5109 39.8819 23.4858 40.0144 23.4869C40.1469 23.4881 40.2779 23.5156 40.3997 23.5678C40.5215 23.62 40.6317 23.6959 40.7239 23.7911C40.8161 23.8863 40.8884 23.9988 40.9368 24.1222C40.9851 24.2456 41.0084 24.3774 41.0054 24.5099C41.0023 24.6424 40.973 24.7729 40.919 24.894L35.517 37.5H48C48.2652 37.5 48.5196 37.6053 48.7071 37.7929C48.8947 37.9804 49 38.2348 49 38.5C49 38.7652 48.8947 39.0195 48.7071 39.2071C48.5196 39.3946 48.2652 39.5 48 39.5Z" fill="#7C89AD"/>
<path d="M44 45.5C43.7348 45.5 43.4804 45.3946 43.2929 45.2071C43.1053 45.0196 43 44.7652 43 44.5V32.5C43 32.2348 43.1053 31.9804 43.2929 31.7929C43.4804 31.6054 43.7348 31.5 44 31.5C44.2652 31.5 44.5196 31.6054 44.7071 31.7929C44.8946 31.9804 45 32.2348 45 32.5V44.5C45 44.7652 44.8946 45.0196 44.7071 45.2071C44.5196 45.3946 44.2652 45.5 44 45.5ZM30 45.5H18C17.8092 45.4999 17.6224 45.4452 17.4617 45.3425C17.301 45.2397 17.173 45.093 17.0929 44.9199C17.0128 44.7467 16.9839 44.5543 17.0096 44.3653C17.0353 44.1762 17.1146 43.9985 17.238 43.853L25.875 33.68C26.6662 32.7045 27.0613 31.4671 26.9817 30.2136C26.9022 28.9601 26.3538 27.7825 25.4456 26.9149C24.5374 26.0473 23.336 25.5533 22.0802 25.5311C20.8244 25.5089 19.6063 25.9601 18.668 26.795C18.5705 26.8846 18.4563 26.954 18.3318 26.9992C18.2073 27.0443 18.0751 27.0642 17.9429 27.0579C17.8107 27.0515 17.681 27.019 17.5614 26.9621C17.4419 26.9052 17.3348 26.8252 17.2464 26.7266C17.158 26.628 17.0901 26.5129 17.0466 26.3878C17.003 26.2628 16.9848 26.1304 16.9928 25.9982C17.0009 25.866 17.0351 25.7368 17.0935 25.618C17.1519 25.4992 17.2333 25.3931 17.333 25.306C18.6477 24.1331 20.3563 23.4991 22.1178 23.5305C23.8794 23.5619 25.5644 24.2564 26.8364 25.4754C28.1084 26.6944 28.874 28.3483 28.9803 30.1069C29.0866 31.8656 28.5259 33.5996 27.41 34.963L20.161 43.5H30C30.2652 43.5 30.5196 43.6054 30.7071 43.7929C30.8946 43.9804 31 44.2348 31 44.5C31 44.7652 30.8946 45.0196 30.7071 45.2071C30.5196 45.3946 30.2652 45.5 30 45.5Z" fill="#7C89AD"/>
<path d="M40 58.5C40 57.4391 39.5786 56.4217 38.8284 55.6716C38.0783 54.9214 37.0609 54.5 36 54.5H32C30.9391 54.5 29.9217 54.9214 29.1716 55.6716C28.4214 56.4217 28 57.4391 28 58.5C28 59.5609 28.4214 60.5783 29.1716 61.3284C29.9217 62.0786 30.9391 62.5 32 62.5H36C37.0609 62.5 38.0783 62.0786 38.8284 61.3284C39.5786 60.5783 40 59.5609 40 58.5Z" fill="#8FA9D8"/>
<path opacity="0.15" d="M32 62.5H36C37.0609 62.5 38.0783 62.0786 38.8284 61.3284C39.5786 60.5783 40 59.5609 40 58.5H28C28 59.5609 28.4214 60.5783 29.1716 61.3284C29.9217 62.0786 30.9391 62.5 32 62.5ZM4 35.5V40.9C4 41.8548 4.37928 42.7705 5.05442 43.4456C5.72955 44.1207 6.64522 44.5 7.6 44.5H12.989V35.5H4ZM60 35.5V40.9C60 41.8548 59.6207 42.7705 58.9456 43.4456C58.2705 44.1207 57.3548 44.5 56.4 44.5H51.031V35.5H60Z" fill="#000064"/>
</svg>
