<svg width="65" height="65" viewBox="0 0 65 65" fill="none" xmlns="http://www.w3.org/2000/svg">
<path d="M32.5 2.5C26.516 8.483 16.309 12.31 6.5 2.5V24.565C6.67112 32.7318 9.22171 40.6711 13.839 47.4095C18.4563 54.1479 24.9396 59.3924 32.494 62.5C40.0504 59.3939 46.536 54.1501 51.1555 47.4116C55.775 40.6732 58.3275 32.733 58.5 24.565V2.5C48.523 12.476 38.232 8.234 32.5 2.5Z" fill="#CCE3FF"/>
<path opacity="0.15" d="M32.5 2.5C26.516 8.483 16.309 12.31 6.5 2.5V24.565C6.67112 32.7318 9.22171 40.6711 13.839 47.4095C18.4563 54.1479 24.9396 59.3924 32.494 62.5H32.5V2.5Z" fill="#000064"/>
<path d="M32.5 43.5C32.2348 43.5 31.9804 43.3946 31.7929 43.2071C31.6054 43.0196 31.5 42.7652 31.5 42.5V18.5C31.5 18.2348 31.6054 17.9804 31.7929 17.7929C31.9804 17.6054 32.2348 17.5 32.5 17.5C32.7652 17.5 33.0196 17.6054 33.2071 17.7929C33.3946 17.9804 33.5 18.2348 33.5 18.5V42.5C33.5 42.7652 33.3946 43.0196 33.2071 43.2071C33.0196 43.3946 32.7652 43.5 32.5 43.5Z" fill="#556685"/>
<path d="M44.5 31.5H20.5C20.2348 31.5 19.9804 31.3946 19.7929 31.2071C19.6054 31.0196 19.5 30.7652 19.5 30.5C19.5 30.2348 19.6054 29.9804 19.7929 29.7929C19.9804 29.6054 20.2348 29.5 20.5 29.5H44.5C44.7652 29.5 45.0196 29.6054 45.2071 29.7929C45.3946 29.9804 45.5 30.2348 45.5 30.5C45.5 30.7652 45.3946 31.0196 45.2071 31.2071C45.0196 31.3946 44.7652 31.5 44.5 31.5Z" fill="#556685"/>
</svg>
