<svg width="64" height="65" viewBox="0 0 64 65" fill="none" xmlns="http://www.w3.org/2000/svg">
<path d="M56 63H8L10 19L54 18.999L56 63Z" fill="#F27E7C"/>
<path opacity="0.1" d="M42.302 19H10L8 63L42.707 27.707L42.302 19Z" fill="#000064"/>
<path d="M42 28C41.7348 28 41.4804 27.8946 41.2929 27.7071C41.1054 27.5196 41 27.2652 41 27V13C41 10.6131 40.0518 8.32387 38.364 6.63604C36.6761 4.94821 34.3869 4 32 4C29.6131 4 27.3239 4.94821 25.636 6.63604C23.9482 8.32387 23 10.6131 23 13V27C23 27.2652 22.8946 27.5196 22.7071 27.7071C22.5196 27.8946 22.2652 28 22 28C21.7348 28 21.4804 27.8946 21.2929 27.7071C21.1054 27.5196 21 27.2652 21 27V13C21 10.0826 22.1589 7.28473 24.2218 5.22183C26.2847 3.15893 29.0826 2 32 2C34.9174 2 37.7153 3.15893 39.7782 5.22183C41.8411 7.28473 43 10.0826 43 13V27C43 27.2652 42.8946 27.5196 42.7071 27.7071C42.5196 27.8946 42.2652 28 42 28Z" fill="#E6EDF7"/>
</svg>
