<svg width="21" height="19" viewBox="0 0 21 19" fill="none" xmlns="http://www.w3.org/2000/svg">
<path d="M18.5 10.68V8.5C18.5 6.37827 17.6571 4.34344 16.1569 2.84315C14.6566 1.34285 12.6217 0.5 10.5 0.5C8.37827 0.5 6.34344 1.34285 4.84315 2.84315C3.34285 4.34344 2.5 6.37827 2.5 8.5V10.68C1.91645 10.8863 1.411 11.2681 1.05294 11.7729C0.694879 12.2778 0.50174 12.8811 0.5 13.5V15.5C0.5 16.2956 0.816071 17.0587 1.37868 17.6213C1.94129 18.1839 2.70435 18.5 3.5 18.5H6.5C6.76522 18.5 7.01957 18.3946 7.20711 18.2071C7.39464 18.0196 7.5 17.7652 7.5 17.5V11.5C7.5 11.2348 7.39464 10.9804 7.20711 10.7929C7.01957 10.6054 6.76522 10.5 6.5 10.5H4.5V8.5C4.5 6.9087 5.13214 5.38258 6.25736 4.25736C7.38258 3.13214 8.9087 2.5 10.5 2.5C12.0913 2.5 13.6174 3.13214 14.7426 4.25736C15.8679 5.38258 16.5 6.9087 16.5 8.5V10.5H14.5C14.2348 10.5 13.9804 10.6054 13.7929 10.7929C13.6054 10.9804 13.5 11.2348 13.5 11.5V17.5C13.5 17.7652 13.6054 18.0196 13.7929 18.2071C13.9804 18.3946 14.2348 18.5 14.5 18.5H17.5C18.2956 18.5 19.0587 18.1839 19.6213 17.6213C20.1839 17.0587 20.5 16.2956 20.5 15.5V13.5C20.4983 12.8811 20.3051 12.2778 19.9471 11.7729C19.589 11.2681 19.0835 10.8863 18.5 10.68ZM5.5 12.5V16.5H3.5C3.23478 16.5 2.98043 16.3946 2.79289 16.2071C2.60536 16.0196 2.5 15.7652 2.5 15.5V13.5C2.5 13.2348 2.60536 12.9804 2.79289 12.7929C2.98043 12.6054 3.23478 12.5 3.5 12.5H5.5ZM18.5 15.5C18.5 15.7652 18.3946 16.0196 18.2071 16.2071C18.0196 16.3946 17.7652 16.5 17.5 16.5H15.5V12.5H17.5C17.7652 12.5 18.0196 12.6054 18.2071 12.7929C18.3946 12.9804 18.5 13.2348 18.5 13.5V15.5Z" fill="#F6EE00"/>
</svg>
